<svg width="21" height="21" viewBox="0 0 21 21" fill="none" xmlns="http://www.w3.org/2000/svg">
<path fill-rule="evenodd" clip-rule="evenodd" d="M8.56577 6.85251C9.07715 7.41937 8.91501 8.06157 8.46285 8.67092C8.35565 8.81539 8.23208 8.95773 8.08283 9.11459C8.0112 9.18987 7.95534 9.2465 7.8385 9.36345C7.57316 9.62906 7.3501 9.85224 7.16932 10.033C7.08165 10.1207 7.68019 11.3167 8.84179 12.4795C10.0028 13.6416 11.1987 14.2405 11.2868 14.1524L11.9555 13.4833C12.3238 13.1147 12.5188 12.9368 12.7868 12.761C13.3439 12.3955 13.9516 12.2962 14.4641 12.7544C16.1375 13.9514 17.0844 14.6859 17.5483 15.168C18.4532 16.1082 18.3346 17.5554 17.5535 18.381C17.2826 18.6673 16.9391 19.0109 16.5335 19.402C14.0798 21.857 8.9013 20.363 4.93255 16.3903C0.962903 12.4168 -0.530364 7.23778 1.91821 4.78789C2.3578 4.34139 2.50274 4.19653 2.93086 3.77468C3.72794 2.98929 5.24193 2.86631 6.16227 3.77546C6.64638 4.25368 7.41817 5.2467 8.56577 6.85251ZM12.2127 0.964844C16.4707 1.48097 19.847 4.85723 20.3631 9.11523L18.4175 9.4395C18.0418 6.00974 15.3182 3.2861 11.8884 2.91044L12.2127 0.964844ZM11.5648 4.85777C14.1664 5.09046 16.2385 7.16249 16.4712 9.76411L14.5193 10.0894C14.4365 8.31573 13.0132 6.89244 11.2395 6.80961L11.5648 4.85777Z" fill="#1E478C"/>
</svg>
