<svg width="59" height="87" viewBox="0 0 59 87" fill="none" xmlns="http://www.w3.org/2000/svg">
<path d="M19.6072 19.915C19.6072 21.3564 15.7166 23.5322 9.86106 23.5322C4.00946 23.5322 0.118866 21.3603 0.118866 19.915C0.118866 18.4736 4.00946 16.2822 9.86106 16.2822C15.7166 16.2822 19.6072 18.4697 19.6072 19.915Z" fill="#1E478C"/>
<path d="M42.3212 4.17189C42.3212 5.61719 38.4462 7.80469 32.5946 7.80469C26.743 7.80469 22.8524 5.61719 22.8524 4.17189C22.8485 2.72659 26.7235 0.554688 32.5907 0.554688C38.4618 0.554688 42.3212 2.72659 42.3212 4.17189Z" fill="#1E478C"/>
<path d="M19.6071 24.5358V76.9618C16.8649 79.8095 13.0407 81.3563 9.09111 81.2196C5.67701 80.9736 2.47781 79.4579 0.126312 76.9696V24.5356C3.12631 26.1137 6.48181 26.8833 9.86851 26.7739C13.2552 26.8833 16.611 26.114 19.6071 24.5358Z" fill="#1E478C"/>
<path d="M58.0642 25.1488C58.0642 26.5941 54.1736 28.7816 48.322 28.7816C42.4704 28.7816 38.5759 26.5941 38.5759 25.1488C38.5759 24.0785 40.7321 22.6019 44.2517 21.9066C44.279 21.9105 44.3064 21.9027 44.3337 21.891C45.6462 21.6488 46.9821 21.5277 48.322 21.5355C54.1736 21.5355 58.0642 23.7074 58.0642 25.1488Z" fill="#1E478C"/>
<path d="M42.3212 8.80897V19.024C38.1024 20.1256 35.3329 22.3951 35.3329 25.1529V80.9339V80.93C34.1767 81.2073 32.9852 81.305 31.7977 81.2229C28.3915 80.9729 25.2 79.4573 22.8485 76.9768V8.80884C25.8485 10.3869 29.204 11.1604 32.5907 11.0471C35.9735 11.1604 39.329 10.3871 42.3212 8.80897Z" fill="#1E478C"/>
<path d="M58.0642 29.79V82.208C55.3142 85.0438 51.4939 86.5947 47.5442 86.4697C44.1301 86.2236 40.9309 84.708 38.5754 82.2236V29.7896C41.5754 31.3677 44.9348 32.1412 48.3215 32.024C51.7082 32.1372 55.0681 31.3681 58.0642 29.79Z" fill="#1E478C"/>
</svg>
