<svg width="87" height="80" viewBox="0 0 87 80" fill="none" xmlns="http://www.w3.org/2000/svg">
<path d="M47.3611 36.094L47.3924 36.1252V36.1291C47.5213 36.2268 47.6307 36.3557 47.7049 36.5002L47.7205 36.5158C49.701 38.84 52.5682 40.2189 55.6189 40.3283C58.658 40.2307 61.5134 38.8517 63.4822 36.5314C63.4822 36.5236 63.49 36.5158 63.4979 36.5158C63.5955 36.3478 63.7283 36.1955 63.8885 36.0783L63.9041 36.0627C67.4236 31.5588 69.2596 25.9647 69.0916 20.2537C69.0916 9.17969 63.0447 0.179688 55.6146 0.179688C48.1927 0.179688 42.1376 9.17969 42.1376 20.2537C41.9696 25.9803 43.8181 31.59 47.3611 36.094ZM56.0174 6.37096C61.3846 6.37096 65.6033 12.4648 65.6033 20.254C65.6033 28.0431 61.3844 34.133 56.0174 34.133C50.6502 34.133 46.4353 28.0392 46.4353 20.254C46.4353 12.4688 50.6502 6.37096 56.0174 6.37096Z" fill="#1E478C"/>
<path d="M56.0172 30.8909C59.4547 30.8909 62.357 26.0237 62.357 20.2539C62.357 14.4805 59.4547 9.61694 56.0172 9.61694C52.5797 9.61694 49.6774 14.4802 49.6774 20.2539C49.6774 26.0273 52.5797 30.8909 56.0172 30.8909Z" fill="#1E478C"/>
<path d="M49.0952 41.934C48.271 41.1801 47.3491 40.5395 46.3569 40.0238C45.4702 39.5941 44.5249 39.2855 43.5522 39.1097C42.6147 38.9457 41.6577 38.9418 40.7163 39.0941C33.853 40.2386 28.6343 50.2701 28.6343 59.0711C28.6343 70.1301 34.6655 79.1451 42.0953 79.1451C42.3922 79.1451 42.689 79.1295 42.9859 79.0943H43.0015C43.0523 79.0826 43.107 79.0787 43.1578 79.0787C43.2086 79.067 43.2632 79.0631 43.314 79.0631C50.1734 78.1373 55.556 69.5123 55.556 59.0631C55.5131 52.7662 53.2241 46.692 49.0952 41.934ZM42.6069 73.051C37.2397 73.051 33.0405 66.9572 33.0405 59.168C33.0405 51.3828 37.2397 45.289 42.6069 45.289C47.9741 45.289 52.1889 51.3828 52.1889 59.168C52.1889 66.9532 47.9741 73.051 42.6069 73.051Z" fill="#1E478C"/>
<path d="M42.6072 48.531C39.1853 48.531 36.283 53.3982 36.283 59.168C36.283 64.9414 39.1853 69.805 42.6072 69.805C46.0291 69.805 48.947 64.9417 48.947 59.168C48.947 53.3946 46.0447 48.531 42.6072 48.531Z" fill="#1E478C"/>
<path d="M19.1302 35.8519H28.3255H28.3216C25.5404 31.4769 23.9778 26.4378 23.7982 21.2579C23.556 13.7813 26.6029 4.91393 32.2787 0.179932H26.4584C25.8256 0.273682 25.2084 0.437741 24.6107 0.664311C17.5091 3.21121 13.5677 13.0863 13.8447 21.1443L13.8408 21.1482C13.9854 26.488 15.8372 31.6409 19.1302 35.8519Z" fill="#1E478C"/>
<path d="M27.0402 21.1451C27.1965 26.4888 29.0558 31.6411 32.3449 35.8521H43.1929C43.1851 35.8442 43.1773 35.8325 43.1773 35.8208V35.8052C40.2945 31.1372 38.8101 25.7432 38.8961 20.2542C38.8961 11.723 42.1891 4.25018 47.1188 0.180176H39.6891C39.0524 0.273926 38.4274 0.437986 37.8258 0.664556C30.7242 3.21146 26.7662 13.0871 27.0402 21.1451Z" fill="#1E478C"/>
<path d="M25.3882 59.07C25.3882 50.6052 28.6304 43.179 33.478 39.093H26.2905C25.642 39.1907 25.0093 39.3508 24.396 39.5813C23.5053 39.9094 22.6616 40.343 21.8804 40.8782C21.7983 40.9251 21.7241 40.9915 21.6382 41.0344C16.3687 44.8625 13.3999 53.2614 13.6265 60.0544C13.8843 67.3356 17.7281 76.3664 24.3925 78.7494H24.3964C25.0097 78.9721 25.6464 79.1323 26.2909 79.2377H33.7167C28.744 75.2065 25.3882 67.679 25.3882 59.07Z" fill="#1E478C"/>
<path d="M10.3881 60.1559C10.1459 52.9567 12.9662 44.4609 18.2553 39.6289C18.4506 39.4492 18.6459 39.2734 18.8569 39.0938H13.0483C12.4116 39.1914 11.7866 39.3555 11.185 39.582C4.19279 42.0937 0.157988 52.164 0.430988 60.062C0.673178 67.3432 4.53259 76.374 11.181 78.757H11.1849C11.7865 78.9836 12.4115 79.1477 13.0482 79.2414H18.8294C13.5442 74.8664 10.6147 66.9999 10.3881 60.1559Z" fill="#1E478C"/>
<path d="M53.8372 42.6409C55.302 44.9339 56.5169 47.3752 57.4622 49.926C58.2825 47.1526 59.5716 44.5355 61.2708 42.1917C59.6146 43.3284 57.5677 43.7502 55.595 43.3635C54.9739 43.2151 54.3841 42.969 53.8372 42.6409Z" fill="#1E478C"/>
<path d="M74.4082 39.016C73.4473 38.8324 72.4668 38.8207 71.5059 38.9808C64.4512 40.1644 59.4079 50.4188 59.4079 58.9578C59.4079 70.0318 65.4548 79.0318 72.8849 79.0318C80.3107 79.0318 86.3579 70.0318 86.3579 58.9578C86.3579 50.5164 81.4712 40.3368 74.4089 39.0168L74.4082 39.016ZM73.4004 72.954C68.0332 72.954 63.8184 66.8602 63.8184 59.059C63.8184 51.2582 68.0372 45.176 73.4004 45.176C78.7636 45.176 82.9824 51.2698 82.9824 59.059C82.9824 66.8442 78.7676 72.954 73.4004 72.954Z" fill="#1E478C"/>
<path d="M73.4002 48.418C69.9627 48.418 67.0604 53.3008 67.0604 59.055C67.0604 64.8128 69.9627 69.711 73.4002 69.711C76.8377 69.711 79.74 64.8282 79.74 59.059C79.74 53.2856 76.8377 48.418 73.4002 48.418Z" fill="#1E478C"/>
<path d="M57.5092 68.1208C56.3256 72.3903 53.9194 76.2224 50.5873 79.1478H64.5323C61.1534 76.2455 58.7123 72.4056 57.5092 68.1208Z" fill="#1E478C"/>
</svg>
