<svg width="93" height="83" viewBox="0 0 93 83" fill="none" xmlns="http://www.w3.org/2000/svg">
<path d="M10.8502 17.8178C20.183 17.8137 67.6109 17.8178 77.3507 17.8178L77.7654 10.2833C77.7489 7.20383 75.4906 4.8101 72.6083 4.8265H70.4815V7.7089C70.2926 17.9328 54.2994 17.9204 54.1155 7.7089V4.8265H51.6477V7.7089C51.4712 17.904 35.4583 17.941 35.2817 7.7089V4.8265H32.8305V7.7089C32.7936 17.0048 18.6035 18.2412 16.6285 9.28558C16.3287 8.25088 16.4889 5.91053 16.4519 4.8265C13.3724 4.50623 10.4407 7.19563 10.7159 10.3121C10.8186 12.2132 10.9089 14.7876 10.8514 17.8178H10.8502Z" fill="#1E478C"/>
<path d="M30.9769 70.867V66.3176H8.20538V70.1075C8.20538 72.9776 10.5376 75.3261 13.424 75.3261H31.3793C30.8948 74.0615 30.9728 72.2343 30.9769 70.867Z" fill="#1E478C"/>
<path d="M24.0796 10.8793H25.2087C26.5924 10.8793 27.7791 9.9719 28.1979 8.72367C28.5182 8.07903 28.3252 5.97676 28.3745 5.26231V3.75952C28.5223 1.91595 27.077 0.27357 25.2088 0.281769H24.0797C22.3839 0.285875 20.9058 1.68187 20.914 3.44744C20.9017 4.33022 20.9222 6.7938 20.914 7.71354C20.9058 9.41752 22.3428 10.8834 24.0796 10.8793Z" fill="#1E478C"/>
<path d="M42.9094 10.8794H44.0262C45.7877 10.8794 47.2001 9.42593 47.1919 7.71375V4.83136V3.44766C47.1919 1.69438 45.7794 0.281982 44.0262 0.281982H42.9094C41.1685 0.281982 39.7437 1.69448 39.7437 3.44766C39.7314 4.33043 39.7519 6.79812 39.7437 7.71375C39.7437 9.41363 41.1603 10.8876 42.9094 10.8794Z" fill="#1E478C"/>
<path d="M61.7436 10.8794H62.8604C64.5972 10.8835 66.0343 9.41773 66.0261 7.71375V4.83136V3.44766C66.0261 1.69438 64.5972 0.281982 62.8604 0.281982H61.7436C59.9903 0.281982 58.5779 1.69448 58.5779 3.44766C58.5738 4.47414 58.582 6.67492 58.5779 7.71375C58.5903 9.40543 59.9739 10.8917 61.7436 10.8794Z" fill="#1E478C"/>
<path d="M26.0704 32.6082H23.2332L22.5187 35.4782H25.3559L26.0704 32.6082Z" fill="#1E478C"/>
<path d="M18.6558 51.5158H21.493L22.2075 48.6458H19.3662L18.6558 51.5158Z" fill="#1E478C"/>
<path d="M64.8927 50.2059C64.4041 48.7031 63.004 47.6191 61.3411 47.6191H39.1487C37.0957 47.6191 35.4327 49.282 35.4327 51.3186C35.4368 57.1859 35.4327 66.9751 35.4327 72.8256C35.4327 74.8786 37.0956 76.5251 39.1487 76.5251H41.0661C41.1113 76.1391 41.1688 75.7655 41.2591 75.4083C43.5584 65.3158 58.3609 66.2848 59.4236 76.5251H61.3411C63.3447 76.5374 65.0775 74.8704 65.057 72.8256V71.3105V56.27C65.0036 55.4899 65.2007 50.8874 64.8927 50.2059Z" fill="#1E478C"/>
<path d="M87.352 60.151H88.7645L84.0098 53.9961C82.8396 52.3414 80.6183 52.5467 78.8363 52.5672V58.139V60.1469C80.6594 60.1551 85.4715 60.1428 87.3521 60.1469L87.352 60.151Z" fill="#1E478C"/>
<path d="M92.1852 64.6097C88.1614 64.6056 80.6848 64.6138 76.6075 64.6097C75.3757 64.6097 74.378 63.6119 74.378 62.3801C74.3821 59.6948 74.3739 55.244 74.378 52.571H69.5165C69.5083 56.1556 69.5248 67.1344 69.5165 70.9573C69.5658 72.8009 69.5494 74.9072 68.6091 76.5332H71.434C72.7931 65.5994 88.3792 65.55 89.7751 76.4757C91.516 76.1637 92.8382 74.6609 92.8382 72.8338V66.6954C92.8382 65.9358 92.6 65.209 92.1853 64.6137L92.1852 64.6097Z" fill="#1E478C"/>
<path d="M71.4337 48.1125H74.3777H75.5232C75.6259 47.8907 75.6875 47.6362 75.6998 47.3693C75.864 44.2118 76.9028 25.838 77.0958 22.2779H72.6367H19.5917C17.3785 22.2902 12.8867 22.2697 10.6735 22.2779C10.0781 31.8201 7.95541 44.0393 1.71025 53.7874C-0.556183 57.1009 2.0223 61.9994 6.06664 61.8598C10.382 61.8557 26.3744 61.8639 30.9772 61.8598C30.9813 59.6302 30.9731 55.167 30.9772 52.9416C30.4394 47.8092 33.7939 43.2146 39.1522 43.1612H61.3446C64.7032 43.1612 67.602 45.1978 68.8666 48.1089H71.4369L71.4337 48.1125ZM17.6865 36.8297C17.9329 35.3557 18.787 32.0052 19.1564 30.5106C19.5136 29.1146 20.7454 28.1456 22.1866 28.1456H27.7912C29.7539 28.1004 31.3429 30.1288 30.8091 32.0257L29.4254 37.5687C29.0846 38.9524 27.8364 39.9338 26.4075 39.9338H20.8029C19.1276 39.9666 17.6536 38.4967 17.6823 36.8256L17.6865 36.8297ZM25.5659 53.6109C25.2087 55.0069 23.9769 55.9759 22.5357 55.9759H16.9311C14.952 56.0375 13.4122 53.9846 13.9009 52.0958L15.2969 46.5528C15.6377 45.1691 16.8859 44.1878 18.3148 44.1878H23.9194C24.8843 44.1878 25.7917 44.6353 26.3871 45.3908C26.9825 46.1504 27.1878 47.1317 26.9537 48.0679C26.8593 48.458 25.6152 53.4097 25.57 53.6109H25.5659ZM47.8329 32.0302L46.4369 37.5732C46.0961 38.9569 44.8479 39.9383 43.419 39.9383H37.8144C35.8477 39.9834 34.2751 37.9551 34.7842 36.0582L36.1802 30.5152C36.521 29.1315 37.7692 28.1501 39.1981 28.1501H44.8027C46.7777 28.105 48.3544 30.121 47.8329 32.0302ZM64.8359 32.0302L63.4522 37.5732C63.1114 38.9569 61.8632 39.9383 60.422 39.9383H54.8174C52.8548 39.9834 51.2658 37.9551 51.7995 36.0582L53.1832 30.5152C53.524 29.1192 54.7722 28.1501 56.2134 28.1501H61.8016C63.7807 28.1009 65.3656 30.1251 64.8318 32.0302H64.8359Z" fill="#1E478C"/>
<path d="M56.5415 35.4778H59.3787L60.0931 32.6077H57.2559L56.5415 35.4778Z" fill="#1E478C"/>
<path d="M39.5218 35.4778H42.359L43.0898 32.6077H40.2485L39.5218 35.4778Z" fill="#1E478C"/>
<path d="M54.5496 75.4162C52.3693 70.875 45.5082 72.4476 45.4836 77.4692C45.4918 80.1052 47.6187 82.2403 50.2548 82.2403C53.6709 82.3142 56.073 78.467 54.5496 75.4162Z" fill="#1E478C"/>
<path d="M84.9178 75.4162C82.7621 70.875 75.8641 72.4435 75.8518 77.4691C75.8436 80.097 77.9911 82.2403 80.623 82.2403C84.0432 82.306 86.4453 78.467 84.9178 75.4162Z" fill="#1E478C"/>
</svg>
