<svg width="43" height="90" viewBox="0 0 43 90" fill="none" xmlns="http://www.w3.org/2000/svg">
<circle cx="21.0958" cy="21.0586" r="21.0049" fill="#65C84C"/>
<path d="M21.0976 11.2017C26.7696 11.2017 31.3798 15.8147 31.3798 21.4858C31.3798 27.1571 26.7696 31.77 21.0976 31.77C19.1755 31.7699 17.3782 31.2422 15.8359 30.3188L13.4384 30.5952L11.7519 30.7886L12.0673 29.1206L12.456 27.0562C11.4154 25.4501 10.8115 23.5352 10.8115 21.4858C10.8115 15.8134 15.4218 11.2017 21.0937 11.2017H21.0976Z" fill="#65C84C" stroke="white" stroke-width="2.5"/>
<path d="M25.5936 25.9107L25.517 25.9874C25.1348 26.3726 24.6227 26.6014 24.0808 26.6288H23.7026C21.7016 26.6288 20.093 25.882 18.3936 24.1873C16.5887 22.3824 15.8611 20.683 15.9617 18.4999H15.9616C15.989 17.958 16.2178 17.4459 16.603 17.0637L16.6797 16.9871C17.1643 16.5005 17.8494 16.2697 18.5296 16.3638C19.2099 16.4579 19.8066 16.8659 20.141 17.4659L20.2463 17.6574H20.2462C20.3792 17.8996 20.4301 18.1784 20.3912 18.4521C20.3524 18.7256 20.2259 18.9793 20.0308 19.175L19.3893 19.8165C19.7597 20.5293 20.2448 21.1763 20.8255 21.7314C21.3806 22.3121 22.0276 22.7972 22.7404 23.1676L23.3771 22.5356C23.5774 22.3389 23.8368 22.2136 24.1155 22.1789C24.3941 22.1443 24.6763 22.2023 24.9187 22.3441L25.1101 22.4495C25.7101 22.7839 26.1182 23.3804 26.2122 24.0608C26.3063 24.7411 26.0755 25.4261 25.5889 25.9107L25.5936 25.9107Z" fill="white"/>
<circle cx="21.0958" cy="68.0684" r="21.0049" fill="#1E478C"/>
<path fill-rule="evenodd" clip-rule="evenodd" d="M19.3064 64.5206C19.7684 65.0327 19.6219 65.6128 19.2135 66.1632C19.1166 66.2937 19.005 66.4223 18.8702 66.564C18.8055 66.632 18.755 66.6831 18.6495 66.7888C18.4098 67.0287 18.2083 67.2303 18.045 67.3936C17.9658 67.4728 18.5065 68.5532 19.5558 69.6035C20.6045 70.6533 21.6848 71.1943 21.7644 71.1147L22.3685 70.5103C22.7011 70.1773 22.8773 70.0167 23.1194 69.8579C23.6226 69.5277 24.1716 69.438 24.6345 69.8519C26.1461 70.9332 27.0015 71.5967 27.4205 72.0321C28.2379 72.8814 28.1308 74.1887 27.4252 74.9345C27.1805 75.1931 26.8703 75.5035 26.5038 75.8568C24.2873 78.0745 19.6095 76.7249 16.0245 73.1363C12.4386 69.5469 11.0897 64.8686 13.3016 62.6556C13.6986 62.2523 13.8296 62.1214 14.2163 61.7403C14.9363 61.0309 16.3039 60.9198 17.1353 61.741C17.5726 62.173 18.2698 63.07 19.3064 64.5206ZM22.6008 59.2021C26.4471 59.6684 29.497 62.7182 29.9632 66.5646L28.2057 66.8575C27.8663 63.7593 25.406 61.299 22.3079 60.9596L22.6008 59.2021ZM22.0155 62.7187C24.3656 62.9289 26.2373 64.8006 26.4475 67.1507L24.6844 67.4445C24.6096 65.8423 23.3239 64.5566 21.7217 64.4818L22.0155 62.7187Z" fill="white"/>
</svg>
