<svg width="135" height="55" viewBox="0 0 135 55" fill="none" xmlns="http://www.w3.org/2000/svg">
<rect x="1.40996" y="0.937793" width="53.0232" height="53.0232" stroke="#151515" stroke-width="1.4"/>
<rect x="15.8652" y="18.728" width="24.1113" height="17.4429" stroke="#151515" stroke-width="2.5"/>
<path d="M15.8857 19.1309L28.0886 31.8218L40.292 19.1309" stroke="#151515" stroke-width="2.5"/>
<rect x="80.9871" y="0.937793" width="53.0232" height="53.0232" stroke="#151515" stroke-width="1.4"/>
<path d="M107.078 16.2666C113.254 16.2666 118.262 21.2731 118.262 27.4492C118.262 33.6254 113.254 38.6328 107.078 38.6328C105.196 38.6328 103.42 38.1653 101.861 37.3418L98.0947 37.8379L96.5332 38.043L96.6846 36.4756L97.0752 32.4502C96.3209 30.944 95.8955 29.2448 95.8955 27.4492C95.8956 21.2731 100.902 16.2667 107.078 16.2666Z" stroke="#151515" stroke-width="2.5045"/>
<path d="M112.764 29.9205L110.355 28.716C110.242 28.6596 110.114 28.6401 109.99 28.6604C109.865 28.6808 109.75 28.7398 109.66 28.8292L108.652 29.8379C107.202 29.6049 104.918 27.3212 104.685 25.8716L105.694 24.8629C105.784 24.7736 105.843 24.6584 105.863 24.5337C105.883 24.4089 105.864 24.281 105.807 24.1679L104.603 21.759C104.563 21.68 104.507 21.6107 104.438 21.5559C104.369 21.5011 104.288 21.4622 104.203 21.4419C104.117 21.4216 104.027 21.4205 103.941 21.4385C103.855 21.4566 103.773 21.4934 103.703 21.5464L101.294 23.3531C101.219 23.4092 101.158 23.4819 101.116 23.5655C101.075 23.6492 101.053 23.7414 101.053 23.8349C101.053 29.5983 104.925 33.4706 110.688 33.4706C110.782 33.4706 110.874 33.4489 110.958 33.407C111.041 33.3652 111.114 33.3045 111.17 33.2297L112.977 30.8208C113.03 30.7502 113.067 30.6688 113.085 30.5824C113.103 30.4961 113.102 30.4067 113.081 30.3209C113.061 30.235 113.022 30.1546 112.967 30.0854C112.913 30.0162 112.843 29.9599 112.764 29.9205Z" fill="#151515"/>
</svg>
